<?xml version="1.0" encoding="UTF-8"?>
<svg width="61px" height="81px" viewBox="0 0 61 81" version="1.1" xmlns="http://www.w3.org/2000/svg" xmlns:xlink="http://www.w3.org/1999/xlink">
    <title>timeTravel.classic</title>
    <defs>
        <path d="M0,0 L61,0 L61,81 L0,81 L0,0 Z" id="path-1"></path>
    </defs>
    <g id="timeTravel.classic" stroke="none" fill="none" xlink:href="#path-1" fill-rule="nonzero">
        <rect id="Panel-Copy" fill="color(display-p3 0.000 0.000 0.000)" opacity="0.5" x="27" y="65" width="27" height="10" rx="3"></rect>
        <rect id="Track-Copy" fill="color(display-p3 0.000 0.000 0.000)" x="29" y="71" width="23" height="1" rx="0.5"></rect>
        <rect id="Slider-Copy" fill="color(display-p3 0.000 0.000 0.000)" x="31" y="70" width="5" height="3" rx="1.5"></rect>
        <path d="M50.0767468,3.00096872 L10.2555408,3 C7.30620372,3 6.18807837,3.21591996 5.0358149,3.83215721 C4.08064815,4.34298598 3.34298598,5.08064815 2.83215721,6.0358149 C2.2396214,7.14376055 2.01720141,8.22014357 2.00096872,10.9232532 L2.00096872,71.0767468 C2.01720141,73.7798564 2.2396214,74.8562395 2.83215721,75.9641851 C3.34298598,76.9193519 4.08064815,77.657014 5.0358149,78.1678428 C6.18807837,78.78408 7.30620372,79 10.2555408,79 L49.7444592,79 C52.6937963,79 53.8119216,78.78408 54.9641851,78.1678428 C55.9193519,77.657014 56.657014,76.9193519 57.1678428,75.9641851 C57.78408,74.8119216 58,73.6937963 58,70.7444592 L58,11.2555408 C58,8.30620372 57.78408,7.18807837 57.1678428,6.0358149 C56.657014,5.08064815 55.9193519,4.34298598 54.9641851,3.83215721 C53.8562395,3.2396214 52.7798564,3.01720141 50.0767468,3.00096872 Z M60,70.7444592 C60,74.3105342 59.6286976,75.6036791 58.9314692,76.9073828 C58.2342408,78.2110865 57.2110865,79.2342408 55.9073828,79.9314692 C54.6036791,80.6286976 53.3105342,81 49.7444592,81 L10.2555408,81 C6.68946584,81 5.39632089,80.6286976 4.09261719,79.9314692 C2.78891348,79.2342408 1.76575919,78.2110865 1.06853082,76.9073828 C0.371302445,75.6036791 0,74.3105342 0,70.7444592 L0,11.2555408 C0,7.68946584 0.371302445,6.39632089 1.06853082,5.09261719 C1.76575919,3.78891348 2.78891348,2.76575919 4.09261719,2.06853082 C5.39632089,1.37130244 6.68946584,1 10.2555408,1 L42,1 C42,0.44771525 42.4477153,1.11022302e-16 43,0 L49,0 C49.5522847,0 50,0.44771525 50,1 L49.7444592,1 C53.3105342,1 54.6036791,1.37130244 55.9073828,2.06853082 C57.2110865,2.76575919 58.2342408,3.78891348 58.9314692,5.09261719 C59.6286976,6.39632089 60,7.68946584 60,11.2555408 L60,13 C60.5522847,13 61,13.4477153 61,14 L61,20 C61,20.5128358 60.6139598,20.9355072 60.1166211,20.9932723 L60,21 L60,23 C60.5522847,23 61,23.4477153 61,24 L61,30 C61,30.5128358 60.6139598,30.9355072 60.1166211,30.9932723 L60,31 L60,70.7444592 Z" id="Combined-Shape" fill="color(display-p3 0.000 0.000 0.000)"></path>
    </g>
</svg>