<?xml version="1.0" encoding="UTF-8"?>
<svg width="80px" height="60px" viewBox="0 0 80 60" version="1.1" xmlns="http://www.w3.org/2000/svg" xmlns:xlink="http://www.w3.org/1999/xlink">
    <title>timeTravel.classic</title>
    <defs>
        <path d="M0,0 L80,0 L80,60 L0,60 L0,0 Z" id="path-1"></path>
    </defs>
    <g id="timeTravel.classic" stroke="none" fill="none" xlink:href="#path-1" fill-rule="nonzero">
        <rect id="Panel-Copy" fill="color(display-p3 0.000 0.000 0.000)" opacity="0.5" x="47" y="44" width="27" height="10" rx="3"></rect>
        <rect id="Track-Copy" fill="color(display-p3 0.000 0.000 0.000)" x="49" y="50" width="23" height="1" rx="0.5"></rect>
        <rect id="Slider-Copy" fill="color(display-p3 0.000 0.000 0.000)" x="51" y="49" width="5" height="3" rx="1.5"></rect>
        <path d="M3.04596964e-15,10.2555408 C3.26432875e-15,6.68946584 0.371302445,5.39632089 1.06853082,4.09261719 C1.76575919,2.78891348 2.78891348,1.76575919 4.09261719,1.06853082 C5.39632089,0.371302445 6.68946584,0 10.2555408,0 L69.7444592,7.10542736e-15 C73.3105342,7.10542736e-15 74.6036791,0.371302445 75.9073828,1.06853082 C77.2110865,1.76575919 78.2342408,2.78891348 78.9314692,4.09261719 C79.6286976,5.39632089 80,6.68946584 80,10.2555408 L80,49.7444592 C80,53.3105342 79.6286976,54.6036791 78.9314692,55.9073828 C78.2342408,57.2110865 77.2110865,58.2342408 75.9073828,58.9314692 C74.6036791,59.6286976 73.3105342,60 69.7444592,60 L10.2555408,60 C6.68946584,60 5.39632089,59.6286976 4.09261719,58.9314692 C2.78891348,58.2342408 1.76575919,57.2110865 1.06853082,55.9073828 C0.371302445,54.6036791 4.09611646e-16,53.3105342 6.27970761e-16,49.7444592 L3.04596964e-15,10.2555408 Z M2,49.7444592 C2,52.6937963 2.21591996,53.8119216 2.83215721,54.9641851 C3.34298598,55.9193519 4.08064815,56.657014 5.0358149,57.1678428 C6.14376055,57.7603786 7.22014357,57.9827986 9.92325322,57.9990313 L70.0767468,57.9990313 C72.7798564,57.9827986 73.8562395,57.7603786 74.9641851,57.1678428 C75.9193519,56.657014 76.657014,55.9193519 77.1678428,54.9641851 C77.78408,53.8119216 78,52.6937963 78,49.7444592 L78,10.2555408 C78,7.30620372 77.78408,6.18807837 77.1678428,5.0358149 C76.657014,4.08064815 75.9193519,3.34298598 74.9641851,2.83215721 C73.8119216,2.21591996 72.6937963,2 69.7444592,2 L10.2555408,2 C7.30620372,2 6.18807837,2.21591996 5.0358149,2.83215721 C4.08064815,3.34298598 3.34298598,4.08064815 2.83215721,5.0358149 C2.21591996,6.18807837 2,7.30620372 2,10.2555408 L2,49.7444592 Z" id="Combined-Shape" fill="color(display-p3 0.000 0.000 0.000)"></path>
    </g>
</svg>