<svg width="744" height="724" viewBox="0 0 744 724" fill="none" xmlns="http://www.w3.org/2000/svg">
<path fill-rule="evenodd" clip-rule="evenodd" d="M341.743 692.639V630.192C341.744 612.949 355.721 598.97 372.963 598.97C390.205 598.97 404.182 612.949 404.183 630.192V692.639C404.182 709.883 390.205 723.861 372.963 723.861C355.721 723.861 341.743 709.882 341.743 692.639ZM168.361 581.688C176.982 566.754 196.076 561.638 211.009 570.259C225.941 578.881 231.057 597.976 222.436 612.91L191.217 666.99L190.805 667.682C182 682.08 163.268 686.905 148.569 678.418C133.637 669.796 128.52 650.701 137.141 635.767L168.361 581.688ZM521.259 570.259C536.192 561.638 555.286 566.754 563.907 581.688L595.127 635.767L595.521 636.47C603.586 651.294 598.398 669.931 583.699 678.418C569 686.905 550.268 682.08 541.463 667.682L541.051 666.99L509.832 612.91C501.211 597.976 506.327 578.881 521.259 570.259ZM102.714 281.865C102.714 264.621 116.692 250.643 133.934 250.642C151.176 250.642 165.153 264.621 165.154 281.865C165.154 396.643 258.194 489.691 372.963 489.691C487.732 489.691 580.772 396.643 580.772 281.865C580.773 264.621 594.75 250.643 611.992 250.642C629.234 250.642 643.211 264.621 643.212 281.865C643.212 431.131 522.217 552.136 372.963 552.136C223.709 552.135 102.714 431.131 102.714 281.865ZM631.839 464.322C640.325 449.623 658.959 444.435 673.782 452.5L674.486 452.894L728.257 483.943L728.95 484.354C743.346 493.16 748.171 511.893 739.685 526.593C731.198 541.293 712.565 546.481 697.742 538.416L697.037 538.022L643.266 506.973L642.574 506.562C628.177 497.756 623.352 479.023 631.839 464.322ZM341.743 281.865V103.53C325.814 119.157 310.659 134.713 297.429 148.642C283.91 162.875 272.524 175.273 264.53 184.098C260.534 188.509 257.391 192.023 255.258 194.42C254.192 195.619 253.378 196.537 252.837 197.15C252.604 197.414 252.421 197.622 252.291 197.77L252.232 197.837L252.087 198.001L252.054 198.038C240.69 211.005 220.961 212.311 207.994 200.947C195.027 189.582 193.727 169.854 205.091 156.886L205.112 156.86L205.146 156.824L205.163 156.804L205.345 156.597C205.501 156.419 205.729 156.16 206.026 155.824C206.619 155.152 207.488 154.171 208.611 152.909C210.857 150.385 214.125 146.733 218.255 142.173C226.513 133.058 238.239 120.292 252.16 105.635C279.876 76.4553 316.802 39.2425 352.593 8.42302L353.151 7.95276C364.97 -1.75835 382.144 -1.48319 393.653 8.70205C428.497 39.5396 464.439 76.7659 491.407 105.948C504.954 120.606 516.364 133.373 524.399 142.489C528.418 147.049 531.598 150.702 533.784 153.227C534.876 154.489 535.721 155.47 536.299 156.142C536.525 156.405 536.71 156.622 536.853 156.789L536.962 156.917L537.139 157.124L537.188 157.18C537.192 157.184 537.199 157.195 537.202 157.198C548.389 170.319 546.83 190.034 533.709 201.222C520.589 212.411 500.885 210.843 489.698 197.722C489.691 197.714 489.67 197.691 489.661 197.681L489.521 197.517C489.393 197.367 489.196 197.138 488.933 196.832C488.407 196.219 487.616 195.299 486.578 194.1C484.503 191.703 481.445 188.192 477.558 183.782C469.781 174.958 458.704 162.563 445.552 148.331C433.163 134.926 419.04 120.015 404.183 104.986V281.865C404.183 299.109 390.205 313.089 372.963 313.089C355.721 313.089 341.743 299.108 341.743 281.865Z" fill="white" style="fill:white;fill-opacity:1;"/>
<path d="M102.158 506.973L47.7082 538.414L47.0039 538.808C32.1807 546.873 13.5473 541.685 5.06077 526.986C-3.5604 512.052 1.55464 492.957 16.4865 484.335L70.9382 452.894L102.158 506.973Z" fill="white" style="fill:white;fill-opacity:1;"/>
<path fill-rule="evenodd" clip-rule="evenodd" d="M102.158 506.973L70.9382 452.894C85.8704 444.273 104.965 449.389 113.586 464.322C122.207 479.256 117.09 498.351 102.158 506.973Z" fill="white" style="fill:white;fill-opacity:1;"/>
</svg>
