<?xml version="1.0" encoding="UTF-8"?>
<!--Generator: Apple Native CoreSVG 341-->
<!DOCTYPE svg
PUBLIC "-//W3C//DTD SVG 1.1//EN"
       "http://www.w3.org/Graphics/SVG/1.1/DTD/svg11.dtd">
<svg version="1.1" xmlns="http://www.w3.org/2000/svg" xmlns:xlink="http://www.w3.org/1999/xlink" viewBox="0 0 3300 2200">
 <!--glyph: "", point size: 100.0, font version: "21.0d6e2", template writer version: "138.0.0"-->
 <style>.defaults {-sfsymbols-variable-value-mode:color;-sfsymbols-draw-reverses-motion-groups:true}

.monochrome-0 {-sfsymbols-motion-group:1;-sfsymbols-layer-tags:1551ccda46fc36f1}
.monochrome-1 {-sfsymbols-clear-behind:true;-sfsymbols-motion-group:0;-sfsymbols-layer-tags:1551ccda46fc36f1}

.multicolor-0:tintColor {-sfsymbols-motion-group:1;-sfsymbols-layer-tags:1551ccda46fc36f1}
.multicolor-1:tintColor {-sfsymbols-clear-behind:true;-sfsymbols-motion-group:0;-sfsymbols-layer-tags:1551ccda46fc36f1}

.hierarchical-0:secondary {-sfsymbols-motion-group:1;-sfsymbols-layer-tags:1551ccda46fc36f1}
.hierarchical-1:primary {-sfsymbols-clear-behind:true;-sfsymbols-motion-group:0;-sfsymbols-layer-tags:1551ccda46fc36f1}

.SFSymbolsPreviewWireframe {fill:none;opacity:1.0;stroke:black;stroke-width:0.5}
</style>
 <g id="Notes">
  <rect height="2200" id="artboard" style="fill:white;opacity:1" width="3300" x="0" y="0"/>
  <line style="fill:none;stroke:black;opacity:1;stroke-width:0.5;" x1="263" x2="3036" y1="292" y2="292"/>
  <text style="stroke:none;fill:black;font-family:sans-serif;font-size:13;font-weight:bold;" transform="matrix(1 0 0 1 263 322)">Weight/Scale Variations</text>
  <text style="stroke:none;fill:black;font-family:sans-serif;font-size:13;text-anchor:middle;" transform="matrix(1 0 0 1 559.711 322)">Ultralight</text>
  <text style="stroke:none;fill:black;font-family:sans-serif;font-size:13;text-anchor:middle;" transform="matrix(1 0 0 1 856.422 322)">Thin</text>
  <text style="stroke:none;fill:black;font-family:sans-serif;font-size:13;text-anchor:middle;" transform="matrix(1 0 0 1 1153.13 322)">Light</text>
  <text style="stroke:none;fill:black;font-family:sans-serif;font-size:13;text-anchor:middle;" transform="matrix(1 0 0 1 1449.84 322)">Regular</text>
  <text style="stroke:none;fill:black;font-family:sans-serif;font-size:13;text-anchor:middle;" transform="matrix(1 0 0 1 1746.56 322)">Medium</text>
  <text style="stroke:none;fill:black;font-family:sans-serif;font-size:13;text-anchor:middle;" transform="matrix(1 0 0 1 2043.27 322)">Semibold</text>
  <text style="stroke:none;fill:black;font-family:sans-serif;font-size:13;text-anchor:middle;" transform="matrix(1 0 0 1 2339.98 322)">Bold</text>
  <text style="stroke:none;fill:black;font-family:sans-serif;font-size:13;text-anchor:middle;" transform="matrix(1 0 0 1 2636.69 322)">Heavy</text>
  <text style="stroke:none;fill:black;font-family:sans-serif;font-size:13;text-anchor:middle;" transform="matrix(1 0 0 1 2933.4 322)">Black</text>
  <line style="fill:none;stroke:black;opacity:1;stroke-width:0.5;" x1="263" x2="3036" y1="1903" y2="1903"/>
  <g transform="matrix(0.2 0 0 0.2 263 1933)">
   <path d="m46.2402 4.15039c21.7773 0 39.4531-17.627 39.4531-39.4043s-17.6758-39.4043-39.4531-39.4043c-21.7285 0-39.4043 17.627-39.4043 39.4043s17.6758 39.4043 39.4043 39.4043Zm0-7.42188c-17.6758 0-31.9336-14.3066-31.9336-31.9824s14.2578-31.9824 31.9336-31.9824 31.9824 14.3066 31.9824 31.9824-14.3066 31.9824-31.9824 31.9824Zm3.61328-17.7734v-28.4668c0-2.24609-1.46484-3.75977-3.71094-3.75977-2.14844 0-3.61328 1.51367-3.61328 3.75977v28.4668c0 2.19727 1.46484 3.71094 3.61328 3.71094 2.24609 0 3.71094-1.51367 3.71094-3.71094Zm-17.8223-10.5957h28.418c2.19727 0 3.71094-1.46484 3.71094-3.61328 0-2.19727-1.51367-3.71094-3.71094-3.71094h-28.418c-2.24609 0-3.75977 1.51367-3.75977 3.71094 0 2.14844 1.51367 3.61328 3.75977 3.61328Z"/>
  </g>
  <g transform="matrix(0.2 0 0 0.2 281.506 1933)">
   <path d="m58.5449 14.5508c27.4902 0 49.8047-22.3145 49.8047-49.8047s-22.3145-49.8047-49.8047-49.8047-49.8047 22.3145-49.8047 49.8047 22.3145 49.8047 49.8047 49.8047Zm0-8.30078c-22.9492 0-41.5039-18.5547-41.5039-41.5039s18.5547-41.5039 41.5039-41.5039 41.5039 18.5547 41.5039 41.5039-18.5547 41.5039-41.5039 41.5039Zm4.05273-23.0957v-36.9141c0-2.49023-1.70898-4.19922-4.15039-4.19922-2.39258 0-4.05273 1.70898-4.05273 4.19922v36.9141c0 2.44141 1.66016 4.15039 4.05273 4.15039 2.44141 0 4.15039-1.66016 4.15039-4.15039Zm-22.5586-14.4043h36.9629c2.44141 0 4.15039-1.61133 4.15039-4.00391 0-2.44141-1.70898-4.15039-4.15039-4.15039h-36.9629c-2.49023 0-4.15039 1.70898-4.15039 4.15039 0 2.39258 1.66016 4.00391 4.15039 4.00391Z"/>
  </g>
  <g transform="matrix(0.2 0 0 0.2 304.924 1933)">
   <path d="m74.8535 28.3203c35.1074 0 63.623-28.4668 63.623-63.5742s-28.5156-63.623-63.623-63.623-63.5742 28.5156-63.5742 63.623 28.4668 63.5742 63.5742 63.5742Zm0-9.08203c-30.127 0-54.4922-24.3652-54.4922-54.4922s24.3652-54.4922 54.4922-54.4922 54.4922 24.3652 54.4922 54.4922-24.3652 54.4922-54.4922 54.4922Zm4.44336-30.3223v-48.4863c0-2.73438-1.85547-4.63867-4.54102-4.63867-2.58789 0-4.44336 1.9043-4.44336 4.63867v48.4863c0 2.68555 1.85547 4.58984 4.44336 4.58984 2.68555 0 4.54102-1.85547 4.54102-4.58984Zm-28.7109-19.7754h48.4863c2.68555 0 4.58984-1.80664 4.58984-4.39453 0-2.73438-1.85547-4.58984-4.58984-4.58984h-48.4863c-2.73438 0-4.58984 1.85547-4.58984 4.58984 0 2.58789 1.85547 4.39453 4.58984 4.39453Z"/>
  </g>
  <text style="stroke:none;fill:black;font-family:sans-serif;font-size:13;font-weight:bold;" transform="matrix(1 0 0 1 263 1953)">Design Variations</text>
  <text style="stroke:none;fill:black;font-family:sans-serif;font-size:13;" transform="matrix(1 0 0 1 263 1971)">Symbols are supported in up to nine weights and three scales.</text>
  <text style="stroke:none;fill:black;font-family:sans-serif;font-size:13;" transform="matrix(1 0 0 1 263 1989)">For optimal layout with text and other symbols, vertically align</text>
  <text style="stroke:none;fill:black;font-family:sans-serif;font-size:13;" transform="matrix(1 0 0 1 263 2007)">symbols with the adjacent text.</text>
  <line style="fill:none;stroke:#00AEEF;stroke-width:0.5;opacity:1.0;" x1="776" x2="776" y1="1919" y2="1933"/>
  <g transform="matrix(0.2 0 0 0.2 776 1933)">
   <path d="m16.5527 0.78125c2.58789 0 3.85742-0.976562 4.78516-3.71094l20.5566-57.5195h0.244141l20.6055 57.5195c0.927734 2.73438 2.19727 3.71094 4.73633 3.71094 2.58789 0 4.24805-1.5625 4.24805-4.00391 0-0.830078-0.146484-1.61133-0.537109-2.63672l-22.9004-60.9863c-1.12305-2.97852-3.125-4.49219-6.25-4.49219-3.02734 0-5.07812 1.46484-6.15234 4.44336l-22.9004 61.084c-0.390625 1.02539-0.537109 1.80664-0.537109 2.63672 0 2.44141 1.5625 3.95508 4.10156 3.95508Zm10.2051-20.9473h30.6641c2.00195 0 3.66211-1.66016 3.66211-3.66211 0-2.05078-1.66016-3.66211-3.66211-3.66211h-30.6641c-2.00195 0-3.66211 1.61133-3.66211 3.66211 0 2.00195 1.66016 3.66211 3.66211 3.66211Z"/>
  </g>
  <line style="fill:none;stroke:#00AEEF;stroke-width:0.5;opacity:1.0;" x1="792.836" x2="792.836" y1="1919" y2="1933"/>
  <text style="stroke:none;fill:black;font-family:sans-serif;font-size:13;font-weight:bold;" transform="matrix(1 0 0 1 776 1953)">Margins</text>
  <text style="stroke:none;fill:black;font-family:sans-serif;font-size:13;" transform="matrix(1 0 0 1 776 1971)">Leading and trailing margins on the left and right side of each symbol</text>
  <text style="stroke:none;fill:black;font-family:sans-serif;font-size:13;" transform="matrix(1 0 0 1 776 1989)">can be adjusted by modifying the x-location of the margin guidelines.</text>
  <text style="stroke:none;fill:black;font-family:sans-serif;font-size:13;" transform="matrix(1 0 0 1 776 2007)">Modifications are automatically applied proportionally to all</text>
  <text style="stroke:none;fill:black;font-family:sans-serif;font-size:13;" transform="matrix(1 0 0 1 776 2025)">scales and weights.</text>
  <g transform="matrix(0.2 0 0 0.2 1289 1933)">
   <path d="m14.209 13.1348 7.86133 7.86133c4.29688 4.39453 9.32617 4.10156 13.8672-1.02539l60.6934-68.2129-4.88281-4.88281-60.2539 67.6758c-1.80664 1.95312-3.4668 2.44141-5.81055 0.0976562l-5.17578-5.12695c-2.29492-2.29492-1.80664-3.95508 0.195312-5.81055l67.4805-62.1582-4.88281-4.83398-68.0664 62.5977c-4.98047 4.58984-5.32227 9.47266-1.02539 13.8184Zm44.873-97.4609c-2.05078 2.00195-2.24609 4.88281-1.07422 6.78711 1.12305 1.80664 3.4668 3.02734 6.5918 2.24609 5.85938-1.66016 12.5977-2.39258 18.8965 0.927734l-2.68555 7.12891c-1.61133 4.00391-0.732422 6.88477 1.70898 9.42383l10.2539 10.3027c2.34375 2.39258 4.54102 2.44141 7.08008 1.95312l4.44336-0.732422 2.58789 2.53906-0.195312 2.24609c-0.0976562 2.29492 0.537109 4.29688 2.7832 6.49414l3.36914 3.32031c2.29492 2.29492 5.51758 2.49023 7.8125 0.195312l12.9883-13.0371c2.29492-2.34375 2.14844-5.37109-0.195312-7.66602l-3.41797-3.41797c-2.19727-2.19727-4.05273-3.02734-6.34766-2.88086l-2.34375 0.244141-2.44141-2.44141 1.02539-4.6875c0.634766-2.73438-0.244141-4.98047-2.88086-7.61719l-11.2793-11.1816c-12.9395-12.8418-35.5957-11.0352-46.6797-0.146484Zm7.08008 2.05078c8.78906-6.39648 25.9766-5.66406 33.6914 1.95312l12.3047 12.207c1.02539 1.02539 1.2207 1.80664 0.927734 3.32031l-1.46484 6.64062 6.73828 6.68945 4.39453-0.244141c1.12305-0.0488281 1.51367 0.0488281 2.34375 0.878906l2.53906 2.49023-10.8398 10.8398-2.49023-2.49023c-0.830078-0.878906-0.976562-1.2207-0.927734-2.39258l0.292969-4.3457-6.68945-6.73828-6.83594 1.17188c-1.41602 0.292969-2.05078 0.195312-3.17383-0.878906l-8.93555-8.88672c-1.07422-1.02539-1.17188-1.70898-0.488281-3.36914l4.58984-11.4746c-6.10352-6.34766-17.041-7.51953-25.5859-4.58984-0.683594 0.244141-0.927734-0.390625-0.390625-0.78125Z"/>
  </g>
  <text style="stroke:none;fill:black;font-family:sans-serif;font-size:13;font-weight:bold;" transform="matrix(1 0 0 1 1289 1953)">Exporting</text>
  <text style="stroke:none;fill:black;font-family:sans-serif;font-size:13;" transform="matrix(1 0 0 1 1289 1971)">Symbols should be outlined when exporting to ensure the</text>
  <text style="stroke:none;fill:black;font-family:sans-serif;font-size:13;" transform="matrix(1 0 0 1 1289 1989)">design is preserved when submitting to Xcode.</text>
  <text id="template-version" style="stroke:none;fill:black;font-family:sans-serif;font-size:13;text-anchor:end;" transform="matrix(1 0 0 1 3036 1933)">Template v.7.0</text>
  <text style="stroke:none;fill:black;font-family:sans-serif;font-size:13;text-anchor:end;" transform="matrix(1 0 0 1 3036 1951)">Requires Xcode 17 or greater</text>
  <text id="descriptive-name" style="stroke:none;fill:black;font-family:sans-serif;font-size:13;text-anchor:end;" transform="matrix(1 0 0 1 3036 1969)">Generated from solarchart.linear</text>
  <text style="stroke:none;fill:black;font-family:sans-serif;font-size:13;text-anchor:end;" transform="matrix(1 0 0 1 3036 1987)">Typeset at 100.0 points</text>
  <text style="stroke:none;fill:black;font-family:sans-serif;font-size:13;" transform="matrix(1 0 0 1 263 726)">Small</text>
  <text style="stroke:none;fill:black;font-family:sans-serif;font-size:13;" transform="matrix(1 0 0 1 263 1156)">Medium</text>
  <text style="stroke:none;fill:black;font-family:sans-serif;font-size:13;" transform="matrix(1 0 0 1 263 1586)">Large</text>
 </g>
 <g id="Guides">
  <g id="H-reference" style="fill:#27AAE1;stroke:none;" transform="matrix(1 0 0 1 339 696)">
   <path d="M0.993654 0L3.63775 0L29.3281-67.1323L30.0303-67.1323L30.0303-70.459L28.1226-70.459ZM11.6885-24.4799L46.9815-24.4799L46.2315-26.7285L12.4385-26.7285ZM55.1196 0L57.7637 0L30.6382-70.459L29.4326-70.459L29.4326-67.1323Z"/>
  </g>
  <line id="Baseline-S" style="fill:none;stroke:#27AAE1;opacity:1;stroke-width:0.5;" x1="263" x2="3036" y1="696" y2="696"/>
  <line id="Capline-S" style="fill:none;stroke:#27AAE1;opacity:1;stroke-width:0.5;" x1="263" x2="3036" y1="625.541" y2="625.541"/>
  <g id="H-reference" style="fill:#27AAE1;stroke:none;" transform="matrix(1 0 0 1 339 1126)">
   <path d="M0.993654 0L3.63775 0L29.3281-67.1323L30.0303-67.1323L30.0303-70.459L28.1226-70.459ZM11.6885-24.4799L46.9815-24.4799L46.2315-26.7285L12.4385-26.7285ZM55.1196 0L57.7637 0L30.6382-70.459L29.4326-70.459L29.4326-67.1323Z"/>
  </g>
  <line id="Baseline-M" style="fill:none;stroke:#27AAE1;opacity:1;stroke-width:0.5;" x1="263" x2="3036" y1="1126" y2="1126"/>
  <line id="Capline-M" style="fill:none;stroke:#27AAE1;opacity:1;stroke-width:0.5;" x1="263" x2="3036" y1="1055.54" y2="1055.54"/>
  <g id="H-reference" style="fill:#27AAE1;stroke:none;" transform="matrix(1 0 0 1 339 1556)">
   <path d="M0.993654 0L3.63775 0L29.3281-67.1323L30.0303-67.1323L30.0303-70.459L28.1226-70.459ZM11.6885-24.4799L46.9815-24.4799L46.2315-26.7285L12.4385-26.7285ZM55.1196 0L57.7637 0L30.6382-70.459L29.4326-70.459L29.4326-67.1323Z"/>
  </g>
  <line id="Baseline-L" style="fill:none;stroke:#27AAE1;opacity:1;stroke-width:0.5;" x1="263" x2="3036" y1="1556" y2="1556"/>
  <line id="Capline-L" style="fill:none;stroke:#27AAE1;opacity:1;stroke-width:0.5;" x1="263" x2="3036" y1="1485.54" y2="1485.54"/>
  <line id="right-margin-Black-S" style="fill:none;stroke:#FF3B30;stroke-width:0.5;opacity:1.0;" x1="2988.65" x2="2988.65" y1="600.785" y2="720.121"/>
  <line id="left-margin-Black-S" style="fill:none;stroke:#FF3B30;stroke-width:0.5;opacity:1.0;" x1="2878.15" x2="2878.15" y1="600.785" y2="720.121"/>
  <line id="right-margin-Regular-S" style="fill:none;stroke:#00AEEF;stroke-width:0.5;opacity:1.0;" x1="1500.92" x2="1500.92" y1="600.785" y2="720.121"/>
  <line id="left-margin-Regular-S" style="fill:none;stroke:#00AEEF;stroke-width:0.5;opacity:1.0;" x1="1398.77" x2="1398.77" y1="600.785" y2="720.121"/>
  <line id="right-margin-Ultralight-S" style="fill:none;stroke:#00AEEF;stroke-width:0.5;opacity:1.0;" x1="609.718" x2="609.718" y1="600.785" y2="720.121"/>
  <line id="left-margin-Ultralight-S" style="fill:none;stroke:#00AEEF;stroke-width:0.5;opacity:1.0;" x1="509.704" x2="509.704" y1="600.785" y2="720.121"/>
 </g>
 <g id="Symbols">
  <g id="Black-S" transform="matrix(1 0 0 1 2878.15 696)">
   <path class="monochrome-0 multicolor-0:tintColor hierarchical-0:secondary SFSymbolsPreviewWireframe" d="M55.9754-63.3614C63.6365-63.3614 68.682-59.52 72.7076-54.5141C75.6278-50.8828 77.5845-45.8736 80.9371-37.7014C81.0723-37.3719 81.0723-37.3719 81.2072-37.0431C84.3638-29.3513 84.926-27.3187 87.5198-24.1874C91.5164-19.3627 94.5034-19.3627 99.8501-19.3627L99.8501-7.36137C89.8501-7.36137 85.79-9.44113 79.8501-15.8734C76.47-19.5337 74.9226-23.971 71.5313-32.2348C71.3959-32.5648 71.3959-32.5648 71.2609-32.8939C68.1379-40.5065 67.1517-43.6809 64.7238-46.7C61.7337-50.4183 59.4712-51.2468 55.9754-51.2352C52.4796-51.2236 50.2549-50.2999 47.3575-46.7C44.9922-43.7613 44.2781-41.4212 41.303-34.0407C41.0725-33.4687 40.9489-33.1619 40.8407-32.8939C37.5655-24.7785 35.252-19.6946 32.1694-15.8734C26.9297-9.37853 21.7226-7.58633 11.8501-7.39016L11.8501-19.3627C17.4729-19.3627 20.3265-19.3627 24.3375-24.1874C26.9555-27.3366 27.8814-29.5205 30.9174-37.0431C31.0249-37.3093 31.1478-37.6143 31.3787-38.1874C34.5832-46.137 36.3796-50.9518 39.2468-54.5141C43.1837-59.4055 48.3143-63.3614 55.9754-63.3614Z"/>
   <path class="monochrome-1 multicolor-1:tintColor hierarchical-1:primary SFSymbolsPreviewWireframe" d="M11.8501-27L99.8501-27L99.8501-33L99.8501-39L11.8501-39L11.8501-33L11.8501-27ZM69.3143-40C75.4206-40 80.3145-44.8922 80.3145-50.9964C80.3145-57.008 75.4206-62 69.3143-62C63.3007-62 58.3145-57.008 58.3145-50.9964C58.3145-44.8922 63.3007-40 69.3143-40ZM90.9289-80C98.5514-80 101.315-79.1967 104.102-77.6883C106.889-76.1799 109.076-73.9663 110.566-71.1458C112.056-68.3253 112.85-65.5276 112.85-57.8126L112.85-12.1875C112.85-4.47244 112.056-1.67477 110.566 1.14574C109.076 3.96625 106.889 6.17981 104.102 7.68824C101.315 9.19666 98.5514 9.99996 90.9289 9.99996L20.7713 9.99996C13.1488 9.99996 10.3847 9.19666 7.59806 7.68824C4.8114 6.17981 2.6244 3.96625 1.13408 1.14574C-0.356246-1.67477-1.14991-4.47244-1.14991-12.1875L-1.14991-57.8126C-1.14991-65.5276-0.356246-68.3253 1.13408-71.1458C2.6244-73.9663 4.8114-76.1799 7.59806-77.6883C10.3847-79.1967 13.1488-80 20.7713-80L90.9289-80ZM25.0792-68C19.8889-68 18.1433-67.663 16.3533-66.7057C14.9545-65.9576 13.8926-64.8956 13.1445-63.4968C12.2124-61.7539 11.8683-60.0531 11.8508-55.1736L11.8508-14.8265C11.8683-9.94694 12.2124-8.24616 13.1445-6.50329C13.8926-5.10446 14.9545-4.04252 16.3533-3.29441C18.1433-2.33713 19.8889-2.00004 25.0792-2.00004L86.621-2.00004C91.8113-2.00004 93.5569-2.33713 95.3468-3.29441C96.7457-4.04252 97.8076-5.10446 98.5557-6.50329C99.513-8.29326 99.8501-10.0388 99.8501-15.2292L99.8501-54.7709C99.8501-59.9612 99.513-61.7068 98.5557-63.4968C97.8076-64.8956 96.7457-65.9576 95.3468-66.7057C93.5569-67.663 91.8113-68 86.621-68L25.0792-68Z" data-clipstroke-keyframes="0 0 0 0.92195314 0.018046875 0 1 0.4219531 0.51804686 0 0 2.8222442 3.004144 0 1 2.810409 3.0194633 0 0.17666762 2.9989116 3.7758698"/>
  </g>
  <g id="Regular-S" transform="matrix(1 0 0 1 1398.77 696)">
   <path class="monochrome-0 multicolor-0:tintColor hierarchical-0:secondary SFSymbolsPreviewWireframe" d="M51.3553-60C57.9363-60 63.0118-57.3498 67.0374-52.3275C69.9576-48.6843 71.7268-45.0678 75.0793-36.8689C75.2145-36.5383 75.2145-36.5383 75.3494-36.2083C78.506-28.4915 80.2308-25.012 82.8151-21.8673C86.0193-17.9683 89.8832-16.0116 95.2299-16.0116L95.2299-10C88.2402-10 82.8603-12.7244 78.6146-17.8907C75.515-21.6624 73.6123-25.5009 70.2209-33.7917C70.0855-34.1227 70.0855-34.1227 69.9505-34.4529C66.8275-42.0903 65.2193-45.3779 62.7914-48.4069C59.8013-52.1373 56.2564-53.9884 51.3553-53.9884C46.5316-53.9884 43.0701-52.1974 40.1727-48.5858C37.8073-45.6374 36.2202-42.3636 33.2451-34.959C33.0146-34.3852 32.891-34.0774 32.7828-33.8085C29.5076-25.6666 27.5173-21.664 24.3273-17.8663C19.9975-12.7116 14.4582-10 7.22994-10L7.22994-16.0116C12.8527-16.0116 16.8871-17.9866 20.1674-21.8917C22.8133-25.0417 24.6046-28.6443 27.6406-36.1915C27.7481-36.4586 27.871-36.7645 28.1019-37.3396C31.3064-45.3152 33.0611-48.9345 35.9283-52.5084C39.8652-57.4157 44.86-60 51.3553-60Z"/>
   <path class="monochrome-1 multicolor-1:tintColor hierarchical-1:primary SFSymbolsPreviewWireframe" d="M7.22994-30L95.2299-30L95.2299-33L95.2299-36L7.22994-36L7.22994-33L7.22994-30ZM65.2299-43C69.1157-43 72.2299-46.1132 72.2299-49.9977C72.2299-53.8232 69.1157-57 65.2299-57C61.403-57 58.2299-53.8232 58.2299-49.9977C58.2299-46.1132 61.403-43 65.2299-43ZM82.0008-74C88.6872-74 91.1118-73.3038 93.5563-71.9965C96.0007-70.6892 97.9191-68.7708 99.2264-66.3263C100.534-63.8819 101.23-61.4573 101.23-54.7709L101.23-15.2291C101.23-8.54275 100.534-6.1181 99.2264-3.67366C97.9191-1.22921 96.0007 0.689203 93.5563 1.99651C91.1118 3.30381 88.6872 4 82.0008 4L20.4591 4C13.7727 4 11.348 3.30381 8.90359 1.99651C6.45915 0.689203 4.54073-1.22921 3.23343-3.67366C1.92613-6.1181 1.22994-8.54275 1.22994-15.2291L1.22994-54.7709C1.22994-61.4573 1.92613-63.8819 3.23343-66.3263C4.54073-68.7708 6.45915-70.6892 8.90359-71.9965C11.348-73.3038 13.7727-74 20.4591-74L82.0008-74ZM20.4591-68C15.2687-68 13.5232-67.6629 11.7332-66.7056C10.3344-65.9575 9.27241-64.8956 8.52431-63.4967C7.59221-61.7539 7.24811-60.0531 7.23064-55.1735L7.23064-14.8265C7.24811-9.9469 7.59221-8.24612 8.52431-6.50325C9.27241-5.10442 10.3344-4.04248 11.7332-3.29437C13.5232-2.33709 15.2687-2 20.4591-2L82.0008-2C87.1911-2 88.9367-2.33709 90.7267-3.29437C92.1255-4.04248 93.1875-5.10442 93.9356-6.50325C94.8928-8.29322 95.2299-10.0388 95.2299-15.2291L95.2299-54.7709C95.2299-59.9612 94.8928-61.7068 93.9356-63.4967C93.1875-64.8956 92.1255-65.9575 90.7267-66.7056C88.9367-67.6629 87.1911-68 82.0008-68L20.4591-68Z" data-clipstroke-keyframes="0 0 0 0.9488863 0.019198803 0 1 0.4488863 0.5191988 0 0 2.8071787 3.0064883 0 1 2.8071787 3.0064883 0 0.19172725 2.998906 3.7904167"/>
  </g>
  <g id="Ultralight-S" transform="matrix(1 0 0 1 509.704 696)">
   <path class="monochrome-0 multicolor-0:tintColor hierarchical-0:secondary SFSymbolsPreviewWireframe" d="M50.428-58C56.249-58 61.4599-56.0353 65.6685-51.0131C68.7214-47.3698 70.4451-44.2289 73.9501-36.03C74.0914-35.6994 74.0914-35.6994 74.2325-35.3695C77.5325-27.6526 79.8353-23.6287 82.5371-20.484C85.887-16.585 92.1278-14.0117 96.2969-14.0117L96.2969-12C92.6461-12 85.4802-13.99 81.0415-19.1562C77.8011-22.9279 75.8984-26.4174 72.3529-34.7082C72.2113-35.0393 72.2113-35.0393 72.0702-35.3695C68.8052-43.0069 66.8342-46.5168 64.296-49.5458C61.17-53.2763 56.9776-55.9884 50.428-55.9884C43.8783-55.9884 39.7249-53.1574 36.6958-49.5458C34.223-46.5975 32.3551-43.1233 29.2448-35.7187C29.0039-35.1449 28.8746-34.8371 28.7615-34.5682C25.3374-26.4263 23.4628-22.9539 20.1278-19.1562C15.6012-14.0015 8.073-12 4.29695-12L4.29695-14.0117C9.2834-14.0117 15.5799-17.0363 19.0093-20.9415C21.7755-24.0914 23.7675-27.8194 26.9415-35.3665C27.0538-35.6336 27.1823-35.9396 27.4238-36.5146C30.7739-44.4902 32.2814-47.4391 35.2789-51.0131C39.3947-55.9204 44.607-58 50.428-58Z"/>
   <path class="monochrome-1 multicolor-1:tintColor hierarchical-1:primary SFSymbolsPreviewWireframe" d="M4.29443-32L96.2944-32L96.2944-33L96.2944-34L4.29443-34L4.29443-33L4.29443-32ZM64.3364-45.3452C67.1109-45.3452 69.3345-47.5688 69.3345-50.3433C69.3345-53.0757 67.1109-55.3447 64.3364-55.3447C61.604-55.3447 59.3384-53.0757 59.3384-50.3433C59.3384-47.5688 61.604-45.3452 64.3364-45.3452ZM79.836-72C86.2549-72 88.9395-71.7076 91.2861-70.4674C93.6328-69.2271 95.4745-67.4071 96.7295-65.088C97.9845-62.7689 98.296-60.1005 98.296-53.757L98.296-16.2431C98.296-9.89957 97.9845-7.20992 96.7295-4.89084C95.4745-2.57175 93.6328-0.751713 91.2861 0.488549C88.9395 1.72881 86.2549 1.99996 79.836 1.99996L20.756 1.99996C14.337 1.99996 11.6448 1.72881 9.2981 0.488549C6.95143-0.751713 5.10975-2.57175 3.85474-4.89084C2.59973-7.20992 2.29599-9.89957 2.29599-16.2431L2.29599-53.757C2.29599-60.1005 2.59973-62.7689 3.85474-65.088C5.10975-67.4071 6.95143-69.2271 9.2981-70.4674C11.6448-71.7076 14.337-72 20.756-72L79.836-72ZM18.1262-70C12.6999-70 11.2531-69.1567 9.38171-68.1414C7.91928-67.348 6.80907-66.2217 6.02695-64.7381C5.05248-62.8896 4.3146-61.5715 4.29634-56.3962L4.29634-13.6039C4.3146-8.42857 5.05248-7.12608 6.02695-5.27758C6.80907-3.79397 7.91928-2.66768 9.38171-1.87423C11.2531-0.858927 12.6999-3.95e-05 18.1262-3.95e-05L82.4658-3.95e-05C87.8921-3.95e-05 89.3207-0.858927 91.192-1.87423C92.6545-2.66768 93.7647-3.79397 94.5468-5.27758C95.5476-7.17604 96.2963-8.52604 96.2963-14.0309L96.2963-55.9691C96.2963-61.474 95.5476-62.8396 94.5468-64.7381C93.7647-66.2217 92.6545-67.348 91.192-68.1414C89.3207-69.1567 87.8921-70 82.4658-70L18.1262-70Z" data-clipstroke-keyframes="0 0 0 0.9692902 0.020071477 0 1 0.46929023 0.52007145 0 0 2.8005605 3.0040386 0 1 2.8097382 3.9956656 0 0.19834808 2.9989085 3.798345"/>
  </g>
 </g>
</svg>
