<?xml version="1.0" encoding="UTF-8"?>
<!--Generator: Apple Native CoreSVG 341-->
<!DOCTYPE svg
PUBLIC "-//W3C//DTD SVG 1.1//EN"
       "http://www.w3.org/Graphics/SVG/1.1/DTD/svg11.dtd">
<svg version="1.1" xmlns="http://www.w3.org/2000/svg" xmlns:xlink="http://www.w3.org/1999/xlink" viewBox="0 0 3300 2200">
 <!--glyph: "", point size: 100.0, font version: "21.0d6e2", template writer version: "138.0.0"-->
 <style>.defaults {-sfsymbols-variable-value-mode:color;-sfsymbols-draw-reverses-motion-groups:true}

.monochrome-0 {-sfsymbols-motion-group:0;-sfsymbols-layer-tags:-6e39775af67700d6}

.multicolor-0:tintColor {-sfsymbols-motion-group:0;-sfsymbols-layer-tags:-6e39775af67700d6}

.hierarchical-0:primary {-sfsymbols-motion-group:0;-sfsymbols-layer-tags:-6e39775af67700d6}

.SFSymbolsPreviewWireframe {fill:none;opacity:1.0;stroke:black;stroke-width:0.5}
</style>
 <g id="Notes">
  <rect height="2200" id="artboard" style="fill:white;opacity:1" width="3300" x="0" y="0"/>
  <line style="fill:none;stroke:black;opacity:1;stroke-width:0.5;" x1="263" x2="3036" y1="292" y2="292"/>
  <text style="stroke:none;fill:black;font-family:sans-serif;font-size:13;font-weight:bold;" transform="matrix(1 0 0 1 263 322)">Weight/Scale Variations</text>
  <text style="stroke:none;fill:black;font-family:sans-serif;font-size:13;text-anchor:middle;" transform="matrix(1 0 0 1 559.711 322)">Ultralight</text>
  <text style="stroke:none;fill:black;font-family:sans-serif;font-size:13;text-anchor:middle;" transform="matrix(1 0 0 1 856.422 322)">Thin</text>
  <text style="stroke:none;fill:black;font-family:sans-serif;font-size:13;text-anchor:middle;" transform="matrix(1 0 0 1 1153.13 322)">Light</text>
  <text style="stroke:none;fill:black;font-family:sans-serif;font-size:13;text-anchor:middle;" transform="matrix(1 0 0 1 1449.84 322)">Regular</text>
  <text style="stroke:none;fill:black;font-family:sans-serif;font-size:13;text-anchor:middle;" transform="matrix(1 0 0 1 1746.56 322)">Medium</text>
  <text style="stroke:none;fill:black;font-family:sans-serif;font-size:13;text-anchor:middle;" transform="matrix(1 0 0 1 2043.27 322)">Semibold</text>
  <text style="stroke:none;fill:black;font-family:sans-serif;font-size:13;text-anchor:middle;" transform="matrix(1 0 0 1 2339.98 322)">Bold</text>
  <text style="stroke:none;fill:black;font-family:sans-serif;font-size:13;text-anchor:middle;" transform="matrix(1 0 0 1 2636.69 322)">Heavy</text>
  <text style="stroke:none;fill:black;font-family:sans-serif;font-size:13;text-anchor:middle;" transform="matrix(1 0 0 1 2933.4 322)">Black</text>
  <line style="fill:none;stroke:black;opacity:1;stroke-width:0.5;" x1="263" x2="3036" y1="1903" y2="1903"/>
  <g transform="matrix(0.2 0 0 0.2 263 1933)">
   <path d="m46.2402 4.15039c21.7773 0 39.4531-17.627 39.4531-39.4043s-17.6758-39.4043-39.4531-39.4043c-21.7285 0-39.4043 17.627-39.4043 39.4043s17.6758 39.4043 39.4043 39.4043Zm0-7.42188c-17.6758 0-31.9336-14.3066-31.9336-31.9824s14.2578-31.9824 31.9336-31.9824 31.9824 14.3066 31.9824 31.9824-14.3066 31.9824-31.9824 31.9824Zm3.61328-17.7734v-28.4668c0-2.24609-1.46484-3.75977-3.71094-3.75977-2.14844 0-3.61328 1.51367-3.61328 3.75977v28.4668c0 2.19727 1.46484 3.71094 3.61328 3.71094 2.24609 0 3.71094-1.51367 3.71094-3.71094Zm-17.8223-10.5957h28.418c2.19727 0 3.71094-1.46484 3.71094-3.61328 0-2.19727-1.51367-3.71094-3.71094-3.71094h-28.418c-2.24609 0-3.75977 1.51367-3.75977 3.71094 0 2.14844 1.51367 3.61328 3.75977 3.61328Z"/>
  </g>
  <g transform="matrix(0.2 0 0 0.2 281.506 1933)">
   <path d="m58.5449 14.5508c27.4902 0 49.8047-22.3145 49.8047-49.8047s-22.3145-49.8047-49.8047-49.8047-49.8047 22.3145-49.8047 49.8047 22.3145 49.8047 49.8047 49.8047Zm0-8.30078c-22.9492 0-41.5039-18.5547-41.5039-41.5039s18.5547-41.5039 41.5039-41.5039 41.5039 18.5547 41.5039 41.5039-18.5547 41.5039-41.5039 41.5039Zm4.05273-23.0957v-36.9141c0-2.49023-1.70898-4.19922-4.15039-4.19922-2.39258 0-4.05273 1.70898-4.05273 4.19922v36.9141c0 2.44141 1.66016 4.15039 4.05273 4.15039 2.44141 0 4.15039-1.66016 4.15039-4.15039Zm-22.5586-14.4043h36.9629c2.44141 0 4.15039-1.61133 4.15039-4.00391 0-2.44141-1.70898-4.15039-4.15039-4.15039h-36.9629c-2.49023 0-4.15039 1.70898-4.15039 4.15039 0 2.39258 1.66016 4.00391 4.15039 4.00391Z"/>
  </g>
  <g transform="matrix(0.2 0 0 0.2 304.924 1933)">
   <path d="m74.8535 28.3203c35.1074 0 63.623-28.4668 63.623-63.5742s-28.5156-63.623-63.623-63.623-63.5742 28.5156-63.5742 63.623 28.4668 63.5742 63.5742 63.5742Zm0-9.08203c-30.127 0-54.4922-24.3652-54.4922-54.4922s24.3652-54.4922 54.4922-54.4922 54.4922 24.3652 54.4922 54.4922-24.3652 54.4922-54.4922 54.4922Zm4.44336-30.3223v-48.4863c0-2.73438-1.85547-4.63867-4.54102-4.63867-2.58789 0-4.44336 1.9043-4.44336 4.63867v48.4863c0 2.68555 1.85547 4.58984 4.44336 4.58984 2.68555 0 4.54102-1.85547 4.54102-4.58984Zm-28.7109-19.7754h48.4863c2.68555 0 4.58984-1.80664 4.58984-4.39453 0-2.73438-1.85547-4.58984-4.58984-4.58984h-48.4863c-2.73438 0-4.58984 1.85547-4.58984 4.58984 0 2.58789 1.85547 4.39453 4.58984 4.39453Z"/>
  </g>
  <text style="stroke:none;fill:black;font-family:sans-serif;font-size:13;font-weight:bold;" transform="matrix(1 0 0 1 263 1953)">Design Variations</text>
  <text style="stroke:none;fill:black;font-family:sans-serif;font-size:13;" transform="matrix(1 0 0 1 263 1971)">Symbols are supported in up to nine weights and three scales.</text>
  <text style="stroke:none;fill:black;font-family:sans-serif;font-size:13;" transform="matrix(1 0 0 1 263 1989)">For optimal layout with text and other symbols, vertically align</text>
  <text style="stroke:none;fill:black;font-family:sans-serif;font-size:13;" transform="matrix(1 0 0 1 263 2007)">symbols with the adjacent text.</text>
  <line style="fill:none;stroke:#00AEEF;stroke-width:0.5;opacity:1.0;" x1="776" x2="776" y1="1919" y2="1933"/>
  <g transform="matrix(0.2 0 0 0.2 776 1933)">
   <path d="m16.5527 0.78125c2.58789 0 3.85742-0.976562 4.78516-3.71094l20.5566-57.5195h0.244141l20.6055 57.5195c0.927734 2.73438 2.19727 3.71094 4.73633 3.71094 2.58789 0 4.24805-1.5625 4.24805-4.00391 0-0.830078-0.146484-1.61133-0.537109-2.63672l-22.9004-60.9863c-1.12305-2.97852-3.125-4.49219-6.25-4.49219-3.02734 0-5.07812 1.46484-6.15234 4.44336l-22.9004 61.084c-0.390625 1.02539-0.537109 1.80664-0.537109 2.63672 0 2.44141 1.5625 3.95508 4.10156 3.95508Zm10.2051-20.9473h30.6641c2.00195 0 3.66211-1.66016 3.66211-3.66211 0-2.05078-1.66016-3.66211-3.66211-3.66211h-30.6641c-2.00195 0-3.66211 1.61133-3.66211 3.66211 0 2.00195 1.66016 3.66211 3.66211 3.66211Z"/>
  </g>
  <line style="fill:none;stroke:#00AEEF;stroke-width:0.5;opacity:1.0;" x1="792.836" x2="792.836" y1="1919" y2="1933"/>
  <text style="stroke:none;fill:black;font-family:sans-serif;font-size:13;font-weight:bold;" transform="matrix(1 0 0 1 776 1953)">Margins</text>
  <text style="stroke:none;fill:black;font-family:sans-serif;font-size:13;" transform="matrix(1 0 0 1 776 1971)">Leading and trailing margins on the left and right side of each symbol</text>
  <text style="stroke:none;fill:black;font-family:sans-serif;font-size:13;" transform="matrix(1 0 0 1 776 1989)">can be adjusted by modifying the x-location of the margin guidelines.</text>
  <text style="stroke:none;fill:black;font-family:sans-serif;font-size:13;" transform="matrix(1 0 0 1 776 2007)">Modifications are automatically applied proportionally to all</text>
  <text style="stroke:none;fill:black;font-family:sans-serif;font-size:13;" transform="matrix(1 0 0 1 776 2025)">scales and weights.</text>
  <g transform="matrix(0.2 0 0 0.2 1289 1933)">
   <path d="m14.209 13.1348 7.86133 7.86133c4.29688 4.39453 9.32617 4.10156 13.8672-1.02539l60.6934-68.2129-4.88281-4.88281-60.2539 67.6758c-1.80664 1.95312-3.4668 2.44141-5.81055 0.0976562l-5.17578-5.12695c-2.29492-2.29492-1.80664-3.95508 0.195312-5.81055l67.4805-62.1582-4.88281-4.83398-68.0664 62.5977c-4.98047 4.58984-5.32227 9.47266-1.02539 13.8184Zm44.873-97.4609c-2.05078 2.00195-2.24609 4.88281-1.07422 6.78711 1.12305 1.80664 3.4668 3.02734 6.5918 2.24609 5.85938-1.66016 12.5977-2.39258 18.8965 0.927734l-2.68555 7.12891c-1.61133 4.00391-0.732422 6.88477 1.70898 9.42383l10.2539 10.3027c2.34375 2.39258 4.54102 2.44141 7.08008 1.95312l4.44336-0.732422 2.58789 2.53906-0.195312 2.24609c-0.0976562 2.29492 0.537109 4.29688 2.7832 6.49414l3.36914 3.32031c2.29492 2.29492 5.51758 2.49023 7.8125 0.195312l12.9883-13.0371c2.29492-2.34375 2.14844-5.37109-0.195312-7.66602l-3.41797-3.41797c-2.19727-2.19727-4.05273-3.02734-6.34766-2.88086l-2.34375 0.244141-2.44141-2.44141 1.02539-4.6875c0.634766-2.73438-0.244141-4.98047-2.88086-7.61719l-11.2793-11.1816c-12.9395-12.8418-35.5957-11.0352-46.6797-0.146484Zm7.08008 2.05078c8.78906-6.39648 25.9766-5.66406 33.6914 1.95312l12.3047 12.207c1.02539 1.02539 1.2207 1.80664 0.927734 3.32031l-1.46484 6.64062 6.73828 6.68945 4.39453-0.244141c1.12305-0.0488281 1.51367 0.0488281 2.34375 0.878906l2.53906 2.49023-10.8398 10.8398-2.49023-2.49023c-0.830078-0.878906-0.976562-1.2207-0.927734-2.39258l0.292969-4.3457-6.68945-6.73828-6.83594 1.17188c-1.41602 0.292969-2.05078 0.195312-3.17383-0.878906l-8.93555-8.88672c-1.07422-1.02539-1.17188-1.70898-0.488281-3.36914l4.58984-11.4746c-6.10352-6.34766-17.041-7.51953-25.5859-4.58984-0.683594 0.244141-0.927734-0.390625-0.390625-0.78125Z"/>
  </g>
  <text style="stroke:none;fill:black;font-family:sans-serif;font-size:13;font-weight:bold;" transform="matrix(1 0 0 1 1289 1953)">Exporting</text>
  <text style="stroke:none;fill:black;font-family:sans-serif;font-size:13;" transform="matrix(1 0 0 1 1289 1971)">Symbols should be outlined when exporting to ensure the</text>
  <text style="stroke:none;fill:black;font-family:sans-serif;font-size:13;" transform="matrix(1 0 0 1 1289 1989)">design is preserved when submitting to Xcode.</text>
  <text id="template-version" style="stroke:none;fill:black;font-family:sans-serif;font-size:13;text-anchor:end;" transform="matrix(1 0 0 1 3036 1933)">Template v.6.0</text>
  <text style="stroke:none;fill:black;font-family:sans-serif;font-size:13;text-anchor:end;" transform="matrix(1 0 0 1 3036 1951)">Requires Xcode 16 or greater</text>
  <text id="descriptive-name" style="stroke:none;fill:black;font-family:sans-serif;font-size:13;text-anchor:end;" transform="matrix(1 0 0 1 3036 1969)">Generated from solstice</text>
  <text style="stroke:none;fill:black;font-family:sans-serif;font-size:13;text-anchor:end;" transform="matrix(1 0 0 1 3036 1987)">Typeset at 100.0 points</text>
  <text style="stroke:none;fill:black;font-family:sans-serif;font-size:13;" transform="matrix(1 0 0 1 263 726)">Small</text>
  <text style="stroke:none;fill:black;font-family:sans-serif;font-size:13;" transform="matrix(1 0 0 1 263 1156)">Medium</text>
  <text style="stroke:none;fill:black;font-family:sans-serif;font-size:13;" transform="matrix(1 0 0 1 263 1586)">Large</text>
 </g>
 <g id="Guides">
  <g id="H-reference" style="fill:#27AAE1;stroke:none;" transform="matrix(1 0 0 1 339 696)">
   <path d="M0.993654 0L3.63775 0L29.3281-67.1323L30.0303-67.1323L30.0303-70.459L28.1226-70.459ZM11.6885-24.4799L46.9815-24.4799L46.2315-26.7285L12.4385-26.7285ZM55.1196 0L57.7637 0L30.6382-70.459L29.4326-70.459L29.4326-67.1323Z"/>
  </g>
  <line id="Baseline-S" style="fill:none;stroke:#27AAE1;opacity:1;stroke-width:0.5;" x1="263" x2="3036" y1="696" y2="696"/>
  <line id="Capline-S" style="fill:none;stroke:#27AAE1;opacity:1;stroke-width:0.5;" x1="263" x2="3036" y1="625.541" y2="625.541"/>
  <g id="H-reference" style="fill:#27AAE1;stroke:none;" transform="matrix(1 0 0 1 339 1126)">
   <path d="M0.993654 0L3.63775 0L29.3281-67.1323L30.0303-67.1323L30.0303-70.459L28.1226-70.459ZM11.6885-24.4799L46.9815-24.4799L46.2315-26.7285L12.4385-26.7285ZM55.1196 0L57.7637 0L30.6382-70.459L29.4326-70.459L29.4326-67.1323Z"/>
  </g>
  <line id="Baseline-M" style="fill:none;stroke:#27AAE1;opacity:1;stroke-width:0.5;" x1="263" x2="3036" y1="1126" y2="1126"/>
  <line id="Capline-M" style="fill:none;stroke:#27AAE1;opacity:1;stroke-width:0.5;" x1="263" x2="3036" y1="1055.54" y2="1055.54"/>
  <g id="H-reference" style="fill:#27AAE1;stroke:none;" transform="matrix(1 0 0 1 339 1556)">
   <path d="M0.993654 0L3.63775 0L29.3281-67.1323L30.0303-67.1323L30.0303-70.459L28.1226-70.459ZM11.6885-24.4799L46.9815-24.4799L46.2315-26.7285L12.4385-26.7285ZM55.1196 0L57.7637 0L30.6382-70.459L29.4326-70.459L29.4326-67.1323Z"/>
  </g>
  <line id="Baseline-L" style="fill:none;stroke:#27AAE1;opacity:1;stroke-width:0.5;" x1="263" x2="3036" y1="1556" y2="1556"/>
  <line id="Capline-L" style="fill:none;stroke:#27AAE1;opacity:1;stroke-width:0.5;" x1="263" x2="3036" y1="1485.54" y2="1485.54"/>
  <line id="right-margin-Black-S" style="fill:none;stroke:#00AEEF;stroke-width:0.5;opacity:1.0;" x1="2988.65" x2="2988.65" y1="600.785" y2="720.121"/>
  <line id="left-margin-Black-S" style="fill:none;stroke:#00AEEF;stroke-width:0.5;opacity:1.0;" x1="2878.15" x2="2878.15" y1="600.785" y2="720.121"/>
  <line id="right-margin-Regular-S" style="fill:none;stroke:#00AEEF;stroke-width:0.5;opacity:1.0;" x1="1500.92" x2="1500.92" y1="600.785" y2="720.121"/>
  <line id="left-margin-Regular-S" style="fill:none;stroke:#00AEEF;stroke-width:0.5;opacity:1.0;" x1="1398.77" x2="1398.77" y1="600.785" y2="720.121"/>
  <line id="right-margin-Ultralight-S" style="fill:none;stroke:#00AEEF;stroke-width:0.5;opacity:1.0;" x1="609.718" x2="609.718" y1="600.785" y2="720.121"/>
  <line id="left-margin-Ultralight-S" style="fill:none;stroke:#00AEEF;stroke-width:0.5;opacity:1.0;" x1="509.704" x2="509.704" y1="600.785" y2="720.121"/>
 </g>
 <g id="Symbols">
  <g id="Black-S" transform="matrix(1 0 0 1 2878.15 696)">
   <path class="monochrome-0 multicolor-0:tintColor hierarchical-0:primary SFSymbolsPreviewWireframe" d="M28.8037-22.9337C30.4606-20.0639 29.4773-16.3944 26.6076-14.7375L20.5454-11.2375C17.6756-9.58066 14.0061-10.5639 12.3492-13.4337C10.6924-16.3034 11.6756-19.973 14.5454-21.6298L20.6076-25.1298C23.4773-26.7867 27.1469-25.8034 28.8037-22.9337ZM40.1991-11.5382C43.0688-9.88139 44.0521-6.21184 42.3952-3.34209L38.8952 2.72009C37.2384 5.58985 33.5688 6.5731 30.6991 4.91624C27.8293 3.25939 26.8461-0.410155 28.5029-3.27991L32.0029-9.34209C33.6598-12.2118 37.3293-13.1951 40.1991-11.5382ZM55.7655-7.36723C59.0792-7.36723 61.7655-4.68094 61.7655-1.36723L61.7655 5.63277C61.7655 8.94648 59.0792 11.6328 55.7655 11.6328C52.4518 11.6328 49.7655 8.94648 49.7655 5.63277L49.7655-1.36723C49.7655-4.68094 52.4518-7.36723 55.7655-7.36723ZM71.3319-11.5382C74.2017-13.1951 77.8712-12.2118 79.5281-9.34209L83.0281-3.27991C84.6849-0.410155 83.7017 3.25939 80.8319 4.91624C77.9622 6.5731 74.2926 5.58985 72.6358 2.72009L69.1358-3.34209C67.4789-6.21184 68.4622-9.88139 71.3319-11.5382ZM82.7273-22.9337C84.3841-25.8034 88.0537-26.7867 90.9234-25.1298L96.9856-21.6298C99.8554-19.973 100.839-16.3034 99.1818-13.4337C97.5249-10.5639 93.8554-9.58066 90.9856-11.2375L84.9234-14.7375C82.0537-16.3944 81.0704-20.0639 82.7273-22.9337ZM83.3136-51.2615C87.7985-51.2615 89.3141-47.3552 89.3141-45.2615C89.3141-28.4175 76.019-11.7578 55.9178-11.7578C35.8166-11.7578 22.5224-28.4175 22.5224-45.2615C22.5224-47.7526 24.2657-51.2615 28.5219-51.2615C32.7782-51.2615 34.5224-47.7526 34.5224-45.2615C34.5224-31.7259 45.7518-23.7578 55.9178-23.7578C66.0838-23.7578 77.3141-31.7259 77.3141-45.2615C77.3141-47.354 78.8288-51.2615 83.3136-51.2615ZM59.5526-77.6829C64.5844-73.2126 70.9141-66.9207 76.6342-60.219C78.0988-58.503 78.9026-54.3432 75.853-51.7532C72.8034-49.1631 68.8602-50.7272 67.5009-52.3276C63.9144-56.5504 65.3092-55.2824 61.9183-58.6549L61.9183-43.9965C61.9183-41.5359 60.1851-38.2615 55.8501-38.2615C51.5151-38.2615 49.9183-41.5338 49.9183-43.9965L49.9183-58.6304C46.6646-55.4819 46.7414-55.5911 43.8891-52.3276C42.1881-50.3814 38.3211-49.2236 35.4233-51.7532C32.5255-54.2827 33.1378-58.2589 34.8488-60.219C40.6775-66.8963 46.7607-73.011 52.1654-77.6829C53.1244-78.5603 54.3513-78.9992 55.8461-78.9995C57.341-78.9995 58.5765-78.5607 59.5526-77.6829Z" data-clipstroke-keyframes="0 0 0 0.31557712 0.6844229 0 1 0.8155771 0.1844229 0 0 1.684423 1.315577 0 1 1.815577 1.1844229 0 0 2.315577 2.684423 0 1 2.815577 2.184423 0 0 3.315577 3.684423 0 1 3.815577 3.184423 0 0 4.684423 4.315577 0 1 4.815577 4.184423 0 0 5.633747 5.5438437 0 1 5.9543247 5.044213"/>
  </g>
  <g id="Regular-S" transform="matrix(1 0 0 1 1398.77 696)">
   <path class="monochrome-0 multicolor-0:tintColor hierarchical-0:primary SFSymbolsPreviewWireframe" d="M23.0642-22.2385C23.8927-20.8036 23.401-18.9688 21.9662-18.1404L15.038-14.1404C13.6031-13.312 11.7683-13.8036 10.9399-15.2385C10.1115-16.6734 10.6031-18.5081 12.038-19.3366L18.9662-23.3366C20.401-24.165 22.2358-23.6734 23.0642-22.2385ZM35.378-9.928C36.8129-9.09957 37.3045-7.2648 36.4761-5.82992L32.4761 1.09828C31.6477 2.53316 29.8129 3.02478 28.378 2.19635C26.9431 1.36793 26.4515-0.466844 27.2799-1.90172L31.2799-8.82992C32.1084-10.2648 33.9431-10.7564 35.378-9.928ZM52.2299-5.42208C53.8868-5.42208 55.2299-4.07893 55.2299-2.42208L55.2299 5.57792C55.2299 7.23478 53.8868 8.57792 52.2299 8.57792C50.5731 8.57792 49.2299 7.23478 49.2299 5.57792L49.2299-2.42208C49.2299-4.07893 50.5731-5.42208 52.2299-5.42208ZM69.008-9.92803C70.4429-10.7565 72.2776-10.2648 73.1061-8.82996L77.1061-1.90175C77.9345-0.466875 77.4429 1.3679 76.008 2.19632C74.5731 3.02475 72.7384 2.53312 71.9099 1.09825L67.9099-5.82996C67.0815-7.26483 67.5731-9.09961 69.008-9.92803ZM81.32-22.2385C82.1484-23.6734 83.9832-24.165 85.418-23.3366L92.3462-19.3366C93.7811-18.5082 94.2727-16.6734 93.4443-15.2385C92.6159-13.8037 90.7811-13.312 89.3462-14.1405L82.418-18.1405C80.9832-18.9689 80.4915-20.8037 81.32-22.2385ZM79.6935-45.2614C81.3503-45.2614 82.6935-43.9183 82.6935-42.2614C82.6935-25.4174 69.0874-11.7578 52.2976-11.7578C35.5079-11.7578 21.9018-25.4174 21.9018-42.2614C21.9018-43.9183 23.2449-45.2614 24.9018-45.2614C26.5586-45.2614 27.9018-43.9183 27.9018-42.2614C27.9018-28.7259 38.8269-17.7578 52.2976-17.7578C65.7684-17.7578 76.6935-28.7259 76.6935-42.2614C76.6935-43.9183 78.0366-45.2614 79.6935-45.2614ZM54.173-73.2696C59.2048-68.7993 64.5911-63.3565 70.3112-56.6548C71.7758-54.9389 71.6046-53.0592 70.3417-51.9867C69.0789-50.9141 67.1857-51.0684 66.1131-52.3312C62.5266-56.554 58.618-60.6228 55.2271-63.9952L55.2271-41.9964C55.2271-40.3987 53.8868-39.2606 52.2299-39.2606C50.5731-39.2606 49.2326-40.3396 49.2326-41.9964L49.2326-63.9952C45.9789-60.8468 41.2398-55.9961 38.3875-52.7327C36.9188-51.0522 35.0237-50.9236 33.7755-52.0132C32.5273-53.1028 32.3987-54.9979 33.4882-56.2461C39.3169-62.9234 44.931-68.5977 50.3358-73.2696C50.9104-73.7606 51.5405-74.0038 52.226-73.9991C52.9115-73.9945 53.5605-73.7513 54.173-73.2696Z" data-clipstroke-keyframes="0 0 0 0.36297703 0.637023 0 1 0.862977 0.13702296 0 0 1.637023 1.362977 0 1 1.862977 1.137023 0 0 2.362977 2.637023 0 1 2.862977 2.137023 0 0 3.362977 3.637023 0 1 3.862977 3.137023 0 0 4.637023 4.362977 0 1 4.862977 4.137023 0 0 5.5734873 5.524115 0 1 5.974955 5.024226"/>
  </g>
  <g id="Ultralight-S" transform="matrix(1 0 0 1 509.704 696)">
   <path class="monochrome-0 multicolor-0:tintColor hierarchical-0:primary SFSymbolsPreviewWireframe" d="M18.7593-22.6569C19.0354-22.1786 18.8716-21.567 18.3933-21.2909L12.3311-17.7909C11.8528-17.5148 11.2412-17.6786 10.9651-18.1569C10.6889-18.6352 10.8528-19.2468 11.3311-19.523L17.3933-23.023C17.8716-23.2991 18.4832-23.1352 18.7593-22.6569ZM31.9881-9.43141C32.4664-9.15527 32.6302-8.54368 32.3541-8.06538L28.8541-2.00321C28.5779-1.52491 27.9664-1.36104 27.4881-1.63718C27.0098-1.91332 26.8459-2.52491 27.122-3.00321L30.622-9.06538C30.8982-9.54368 31.5098-9.70755 31.9881-9.43141ZM50.09-4.59052C50.6423-4.59052 51.09-4.14281 51.09-3.59052L51.09 3.40948C51.09 3.96176 50.6423 4.40948 50.09 4.40948C49.5377 4.40948 49.09 3.96176 49.09 3.40948L49.09-3.59052C49.09-4.14281 49.5377-4.59052 50.09-4.59052ZM68.1181-9.4314C68.5964-9.70755 69.208-9.54367 69.4841-9.06538L72.9841-3.0032C73.2603-2.52491 73.0964-1.91332 72.6181-1.63717C72.1398-1.36103 71.5282-1.52491 71.2521-2.0032L67.7521-8.06538C67.4759-8.54367 67.6398-9.15526 68.1181-9.4314ZM81.3451-22.6569C81.6212-23.1352 82.2328-23.2991 82.7111-23.0229L88.7733-19.5229C89.2516-19.2468 89.4154-18.6352 89.1393-18.1569C88.8632-17.6786 88.2516-17.5148 87.7733-17.7909L81.7111-21.2909C81.2328-21.567 81.0689-22.1786 81.3451-22.6569ZM77.76-44.2615C78.2725-44.2615 78.76-43.9436 78.76-42.9528C78.76-27.7444 66.2036-14.7578 50.3642-14.7578C34.5247-14.7578 21.968-28.2336 21.968-42.9528C21.968-43.8679 22.3184-44.2615 22.9683-44.2615C23.6182-44.2615 23.9966-43.8679 23.9966-42.9528C23.9966-29.4172 35.2376-16.7578 50.3642-16.7578C65.4907-16.7578 76.7413-29.4172 76.7413-42.9528C76.7413-43.9436 77.2476-44.2615 77.76-44.2615ZM51.2915-72.4172C56.3232-67.947 61.6374-62.499 67.3532-55.8023C67.6842-55.4146 67.5225-54.8553 67.1136-54.5111C66.7046-54.1669 66.0939-54.1669 65.704-54.626C62.1175-58.8488 54.6824-66.4863 51.2915-69.8587L51.2915-42.9951C51.2915-42.6606 50.8216-42.2617 50.2968-42.2617C49.772-42.2617 49.296-42.6606 49.296-42.9951L49.296-69.8587C46.0423-66.7102 37.5829-58.0493 34.7306-54.7858C34.1413-54.1116 33.5669-54.1863 33.1572-54.5199C32.7476-54.8536 32.6624-55.5004 33.1572-56.0672C38.9859-62.7446 43.8913-67.7454 49.296-72.4172C49.696-72.8023 50.0283-72.9949 50.2928-72.9949C50.5574-72.9949 50.8903-72.8023 51.2915-72.4172Z" data-clipstroke-keyframes="0 0 0 0.4171564 0.5828436 0 1 0.9171564 0.0828436 0 0 1.5828435 1.4171565 0 1 1.9171565 1.0828435 0 0 2.4171565 2.5828435 0 1 2.9171565 2.0828435 0 0 3.4171565 3.5828435 0 1 3.9171565 3.0828435 0 0 4.582844 4.417156 0 1 4.917156 4.082844 0 0 5.527908 5.5071898 0 1 5.9897466 5.010187"/>
  </g>
 </g>
</svg>
