<svg width="39" height="80" viewBox="0 0 39 80" fill="none" xmlns="http://www.w3.org/2000/svg">
<path d="M26.2002 78V80H12.7998V78H26.2002ZM37 67.2002V12.7998C37 10.5267 36.9983 8.94166 36.8975 7.70801C36.7986 6.49806 36.614 5.80299 36.3457 5.27637C35.7705 4.14739 34.8526 3.22954 33.7236 2.6543C33.197 2.38599 32.5019 2.20143 31.292 2.10254C30.0583 2.00175 28.4733 2 26.2002 2H12.7998C10.5267 2 8.94166 2.00175 7.70801 2.10254C6.49806 2.20143 5.80299 2.38599 5.27637 2.6543C4.14739 3.22954 3.22954 4.14739 2.6543 5.27637C2.38599 5.80299 2.20143 6.49806 2.10254 7.70801C2.00175 8.94166 2 10.5267 2 12.7998V67.2002C2 69.4733 2.00175 71.0583 2.10254 72.292C2.20143 73.5019 2.38599 74.197 2.6543 74.7236C3.22954 75.8526 4.14739 76.7705 5.27637 77.3457C5.803 77.614 6.49806 77.7986 7.70801 77.8975C8.94166 77.9983 10.5267 78 12.7998 78V80C8.59928 80 6.36791 79.9998 4.69531 79.2812L4.36816 79.1279C2.95709 78.409 1.79343 77.2885 1.02148 75.9111L0.87207 75.6318C0.109113 74.1344 0.0138717 72.2321 0.00195312 68.7783L0 67.2002V12.7998C1.76339e-10 8.59928 0.000164032 6.36791 0.71875 4.69531L0.87207 4.36816C1.59105 2.95709 2.71146 1.79343 4.08887 1.02148L4.36816 0.87207C6.07943 0.000145555 8.31953 1.8486e-10 12.7998 0H26.2002L27.7783 0.00195312C31.2321 0.0138717 33.1344 0.109113 34.6318 0.87207C36.1371 1.63906 37.3609 2.86287 38.1279 4.36816C38.9999 6.07943 39 8.31953 39 12.7998V67.2002L38.998 68.7783C38.9861 72.2321 38.8909 74.1344 38.1279 75.6318C37.3609 77.1371 36.1371 78.3609 34.6318 79.1279C33.1344 79.8909 31.2321 79.9861 27.7783 79.998L26.2002 80V78C28.4733 78 30.0583 77.9983 31.292 77.8975C32.5019 77.7986 33.197 77.614 33.7236 77.3457C34.8526 76.7705 35.7705 75.8526 36.3457 74.7236C36.614 74.197 36.7986 73.5019 36.8975 72.292C36.9983 71.0583 37 69.4733 37 67.2002Z" fill="black" style="fill:black;fill-opacity:1;"/>
<rect x="14" y="3" width="11" height="3" rx="1.5" fill="black" style="fill:black;fill-opacity:1;"/>
<rect x="5" y="70" width="29" height="4" rx="2" fill="black" style="fill:black;fill-opacity:1;"/>
<rect opacity="0.6" x="5" y="66" width="9" height="3" rx="1.5" fill="black" style="fill:black;fill-opacity:1;"/>
<rect opacity="0.6" x="27" y="66" width="7" height="3" rx="1.5" fill="black" style="fill:black;fill-opacity:1;"/>
</svg>
