<?xml version="1.0" encoding="UTF-8"?>
<svg width="39px" height="80px" viewBox="0 0 39 80" version="1.1" xmlns="http://www.w3.org/2000/svg" xmlns:xlink="http://www.w3.org/1999/xlink">
    <title>timeTravel.compact</title>
    <defs>
        <path d="M0,0 L39,0 L39,80 L0,80 L0,0 Z" id="path-1"></path>
    </defs>
    <g id="timeTravel.compact" stroke="none" fill="none" fill-rule="nonzero" xlink:href="#path-1">
        <path d="M26.2001953,78 L26.2001953,80 L12.7998047,80 L12.7998047,78 L26.2001953,78 Z M37,67.2001953 L37,12.7998047 C37,10.5266974 36.9982539,8.94165552 36.8974609,7.70800781 C36.79857,6.49805605 36.6140096,5.80299497 36.3457031,5.27636719 C35.7704629,4.14739478 34.8526052,3.22953707 33.7236328,2.65429688 C33.197005,2.38599032 32.5019439,2.20143001 31.2919922,2.10253906 C30.0583445,2.00174605 28.4733026,2 26.2001953,2 L12.7998047,2 C10.5266976,2 8.94165552,2.00174607 7.70800781,2.10253906 C6.49805593,2.20143002 5.80299497,2.38599038 5.27636719,2.65429688 C4.14739478,3.22953707 3.22953707,4.14739478 2.65429688,5.27636719 C2.38599044,5.80299485 2.20143003,6.49805582 2.10253906,7.70800781 C2.00174609,8.94165552 2,10.5266979 2,12.7998047 L2,67.2001953 C2,69.4733026 2.00174606,71.0583445 2.10253906,72.2919922 C2.20143001,73.5019439 2.38599035,74.197005 2.65429688,74.7236328 C3.22953707,75.8526052 4.14739478,76.7704629 5.27636719,77.3457031 C5.80299503,77.6140097 6.49805605,77.79857 7.70800781,77.8974609 C8.94165552,77.9982539 10.5266974,78 12.7998047,78 L12.7998047,80 C8.59927511,80 6.3679086,80 4.6953125,79.28125 L4.36816406,79.1279297 C2.95708871,78.4089509 1.79343146,77.2885355 1.02148438,75.9111328 L0.872070312,75.6318359 C0.109113038,74.1344324 0.0138717042,72.2321296 0.001953125,68.7783203 L0,67.2001953 L0,12.7998047 C0,8.59927511 0,6.36790836 0.71875,4.6953125 L0.872070312,4.36816406 C1.59104913,2.95708871 2.71146452,1.79343146 4.08886719,1.02148438 L4.36816406,0.872070312 C6.07943046,0 8.31953287,0 12.7998047,0 L26.2001953,0 L27.7783203,0.001953125 C31.2321296,0.0138716986 33.1344323,0.109113038 34.6318359,0.872070312 C36.1371325,1.63905728 37.3609427,2.86286747 38.1279297,4.36816406 C39,6.07943058 39,8.31953287 39,12.7998047 L39,67.2001953 L38.9980469,68.7783203 C38.9861283,72.2321298 38.8908868,74.1344327 38.1279297,75.6318359 C37.3609427,77.1371325 36.1371325,78.3609427 34.6318359,79.1279297 C33.1344324,79.8908869 31.2321296,79.9861283 27.7783203,79.9980469 L26.2001953,80 L26.2001953,78 C28.4733024,78 30.0583445,77.9982539 31.2919922,77.8974609 C32.5019441,77.79857 33.197005,77.6140096 33.7236328,77.3457031 C34.8526052,76.7704629 35.7704629,75.8526052 36.3457031,74.7236328 C36.6140096,74.1970052 36.79857,73.5019442 36.8974609,72.2919922 C36.9982539,71.0583445 37,69.4733021 37,67.2001953 Z" id="Frame" fill="color(display-p3 0.000 0.000 0.000)"></path>
        <rect id="Notch" fill="color(display-p3 0.000 0.000 0.000)" x="14" y="3" width="11" height="3" rx="1.5"></rect>
        <rect id="Panel" fill="color(display-p3 0.000 0.000 0.000)" x="5" y="70" width="29" height="4" rx="2"></rect>
        <rect id="Button" fill="color(display-p3 0.000 0.000 0.000)" opacity="0.5" x="5" y="66" width="9" height="3" rx="1.5"></rect>
        <rect id="Button" fill="color(display-p3 0.000 0.000 0.000)" opacity="0.5" x="27" y="66" width="7" height="3" rx="1.5"></rect>
    </g>
</svg>