<svg xmlns="http://www.w3.org/2000/svg" width="80" height="80" fill="none" viewBox="0 0 80 80"><path fill="#000" fill-rule="evenodd" d="M16.6123 29.3334C18.6464 29.3334 20.2954 30.9648 20.2954 32.9772C20.2954 43.6933 29.0765 50.5585 39.9084 50.5585C50.7403 50.5585 59.5214 43.6933 59.5214 32.9772C59.5214 30.9648 61.1704 29.3334 63.2045 29.3334C65.2387 29.3334 66.8877 30.9648 66.8877 32.9772C66.8877 47.7181 54.8087 57.8461 39.9084 57.8461C25.0081 57.8461 12.9291 47.7181 12.9291 32.9772C12.9291 30.9648 14.5781 29.3334 16.6123 29.3334Z" clip-rule="evenodd"/><rect width="6.616" height="12.923" x="36.703" y="63.384" fill="#000" rx="3.308"/><rect width="6.603" height="13.154" fill="#000" rx="3.301" transform="matrix(0.867711 0.49707 -0.502936 0.864324 22.0244 57.2306)"/><rect width="6.603" height="13.154" fill="#000" rx="3.301" transform="matrix(0.867711 -0.49707 0.502936 0.864324 53.2426 60.5125)"/><rect width="6.577" height="13.206" fill="#000" rx="3.288" transform="matrix(0.502936 -0.864324 0.867711 0.49707 65.2335 52.4534)"/><rect width="6.577" height="13.206" fill="#000" rx="3.288" transform="matrix(0.502936 0.864324 -0.867711 0.49707 11.4581 46.7692)"/><path fill="#000" fill-rule="evenodd" d="M42.5667 1.04524L59.0038 17.2698C60.4187 18.6664 60.4187 20.9329 59.0038 22.3295C57.5919 23.7231 55.305 23.7231 53.8931 22.3295L43.6279 12.197V34.1684C43.6279 36.1478 42.0036 37.7434 40.0114 37.7434C38.0191 37.7434 36.3948 36.1478 36.3948 34.1684L36.3948 12.197L26.1297 22.3295C24.7178 23.7231 22.4308 23.7231 21.0189 22.3295C19.604 20.9329 19.604 18.6664 21.0189 17.2698L37.456 1.04524C38.8679 -0.348412 41.1548 -0.348412 42.5667 1.04524ZM42.5942 9.73046L42.594 9.73023V34.1686C42.594 34.8437 42.3281 35.4575 41.8942 35.9136C42.3283 35.4574 42.5942 34.8436 42.5942 34.1684V9.73046ZM38.1848 1.77261C39.1934 0.776987 40.8288 0.776987 41.8375 1.77261L58.2745 17.9971C59.2605 18.9704 59.2827 20.5346 58.3411 21.5345C59.2829 20.5347 59.2608 18.9702 58.2748 17.9969L41.8377 1.77235C40.829 0.776733 39.1937 0.776733 38.185 1.77235L38.1848 1.77261Z" clip-rule="evenodd"/></svg>